<?xml version="1.0" encoding="UTF-8" standalone="no"?>
<!-- Created with Inkscape (http://www.inkscape.org/) -->

<svg
   xmlns:dc="http://purl.org/dc/elements/1.1/"
   xmlns:cc="http://creativecommons.org/ns#"
   xmlns:rdf="http://www.w3.org/1999/02/22-rdf-syntax-ns#"
   xmlns:svg="http://www.w3.org/2000/svg"
   xmlns="http://www.w3.org/2000/svg"
   xmlns:sodipodi="http://sodipodi.sourceforge.net/DTD/sodipodi-0.dtd"
   xmlns:inkscape="http://www.inkscape.org/namespaces/inkscape"
   version="1.1"
   id="svg6402"
   width="1440"
   height="1440"
   viewBox="0 0 1440 1440"
   sodipodi:docname="account.svg"
   inkscape:version="0.92.2 5c3e80d, 2017-08-06">
  <metadata
     id="metadata6408">
    <rdf:RDF>
      <cc:Work
         rdf:about="">
        <dc:format>image/svg+xml</dc:format>
        <dc:type
           rdf:resource="http://purl.org/dc/dcmitype/StillImage" />
        <dc:title></dc:title>
      </cc:Work>
    </rdf:RDF>
  </metadata>
  <defs
     id="defs6406" />
  <sodipodi:namedview
     pagecolor="#ffffff"
     bordercolor="#666666"
     borderopacity="1"
     objecttolerance="10"
     gridtolerance="10"
     guidetolerance="10"
     inkscape:pageopacity="0"
     inkscape:pageshadow="2"
     inkscape:window-width="1920"
     inkscape:window-height="1051"
     id="namedview6404"
     showgrid="false"
     inkscape:pagecheckerboard="true"
     inkscape:zoom="0.32777778"
     inkscape:cx="1294.4273"
     inkscape:cy="849.60946"
     inkscape:window-x="1920"
     inkscape:window-y="0"
     inkscape:window-maximized="1"
     inkscape:current-layer="svg6402" />
  <path
     style="fill:#ececec;fill-opacity:0.9953271;stroke-width:1.53533864"
     d="m 712.15147,1386.4865 c -37.16709,-0.1275 -80.35821,-0.793 -95.98028,-1.4799 -15.62206,-0.6869 -42.56726,-2.3357 -59.87821,-3.6638 -17.31094,-1.3282 -43.56522,-3.7794 -58.34285,-5.4473 -14.77764,-1.6678 -37.54479,-4.7706 -50.59366,-6.8952 -13.0489,-2.1246 -31.70325,-5.8671 -41.45415,-8.3163 -9.75089,-2.4494 -23.37046,-6.4559 -30.26567,-8.9033 -6.89523,-2.4475 -16.47608,-6.8151 -21.29078,-9.7058 -4.81469,-2.8909 -10.42348,-7.4244 -12.46397,-10.0746 l -3.70997,-4.8184 0.0765,-216.4929 c 0.0644,-182.05494 0.44184,-219.61673 2.3734,-236.1292 1.26333,-10.7998 4.06559,-27.52181 6.22727,-37.16003 2.16167,-9.63822 6.66808,-25.57423 10.01424,-35.41338 3.34616,-9.83912 11.1658,-28.25286 17.377,-40.9194 6.21118,-12.66656 16.08882,-30.28456 21.95032,-39.15113 5.8615,-8.86659 15.0918,-21.63608 20.51177,-28.37666 5.41997,-6.74058 16.43028,-18.83137 24.46732,-26.86841 8.03706,-8.03707 20.12785,-19.04735 26.86842,-24.46733 6.74059,-5.41998 19.51008,-14.65028 28.37665,-20.51177 8.86659,-5.8615 26.4846,-15.73914 39.15113,-21.95031 12.66656,-6.2112 31.0803,-14.03085 40.91943,-17.37703 9.83912,-3.34614 25.77516,-7.85256 35.41339,-10.01422 9.63819,-2.16168 26.45622,-4.97518 37.37341,-6.25224 14.47683,-1.69344 36.06162,-2.32191 79.74643,-2.32191 43.68482,0 65.26962,0.62847 79.74644,2.32191 10.91718,1.27706 27.73521,4.09056 37.37342,6.25224 9.63824,2.16166 25.57425,6.66808 35.41339,10.01422 9.83912,3.34618 28.25287,11.16583 40.91941,17.37703 12.66653,6.21117 30.28454,16.08881 39.15113,21.95031 8.86658,5.86149 21.63606,15.09179 28.37665,20.51177 6.74058,5.41998 18.83145,16.43026 26.86845,24.46733 8.0371,8.03704 19.0474,20.12783 24.4673,26.86841 5.42,6.74058 14.6478,19.51007 20.5065,28.37666 5.8587,8.86657 15.6385,26.18266 21.7326,38.48022 6.0943,12.29753 14.2784,31.98825 18.187,43.75714 3.9087,11.76889 8.8207,30.03426 10.9155,40.58972 2.0949,10.55545 4.6077,27.01546 5.584,36.57781 1.2368,12.11309 1.85,81.73721 2.0223,229.56465 l 0.247,212.1784 -3.5583,4.5745 c -1.9571,2.516 -7.265,7.0872 -11.7952,10.1583 -4.5301,3.0708 -12.9468,7.382 -18.7038,9.5799 -5.757,2.1979 -16.34,5.6828 -23.5178,7.7439 -7.1776,2.0612 -21.341,5.4739 -31.4742,7.5834 -10.1333,2.1097 -28.0273,5.2905 -39.7644,7.0685 -11.73713,1.7783 -33.50055,4.5655 -48.36315,6.1941 -14.86262,1.6286 -41.53188,4.0066 -59.26504,5.2843 -17.73316,1.2782 -48.46858,3.0308 -68.30095,3.8951 -19.83236,0.8645 -66.46828,1.4676 -103.63535,1.3407 z m 8.2257,-898.09274 c -9.60263,-0.0829 -24.02292,-1.15368 -32.04507,-2.3796 -8.02214,-1.2259 -22.61488,-4.90462 -32.4283,-8.17489 -9.81342,-3.27026 -22.63716,-8.36045 -28.49722,-11.31152 -5.86005,-2.95107 -17.17615,-9.71638 -25.1469,-15.03403 -8.3508,-5.5712 -21.02166,-16.19786 -29.89999,-25.07619 -8.87832,-8.87833 -19.50499,-21.54919 -25.07617,-29.9 -5.31765,-7.97073 -12.08297,-19.28684 -15.03404,-25.14689 -2.95108,-5.86005 -8.03532,-18.68379 -11.29833,-28.49721 -3.26301,-9.81343 -7.00949,-25.18574 -8.32551,-34.16069 -1.31604,-8.97494 -2.39281,-23.39521 -2.39281,-32.04506 0,-8.64983 1.07677,-23.07012 2.39281,-32.04507 1.31602,-8.97496 5.0625,-24.34726 8.32551,-34.16067 3.26301,-9.81344 8.34725,-22.63718 11.29833,-28.49723 2.95107,-5.86005 9.71639,-17.17616 15.03404,-25.14689 5.57118,-8.3508 16.19785,-21.02168 25.07617,-29.9 8.87833,-8.87833 21.54919,-19.50498 29.89999,-25.07618 7.97075,-5.31764 19.28685,-12.08296 25.1469,-15.034032 5.86006,-2.951071 18.6838,-8.035321 28.49722,-11.298326 9.81342,-3.263005 25.18572,-7.009492 34.16067,-8.325524 8.97495,-1.31603 23.39524,-2.392802 32.04507,-2.392802 8.64985,0 23.07013,1.076772 32.04507,2.392802 8.97496,1.316032 24.34726,5.062519 34.16068,8.325524 9.81344,3.263005 22.63718,8.347255 28.49723,11.298326 5.86005,2.951072 17.17615,9.716392 25.14689,15.034032 8.35079,5.5712 21.02167,16.19785 29.9,25.07618 8.87833,8.87832 19.50498,21.5492 25.07618,29.9 5.31765,7.97073 12.08296,19.28684 15.03403,25.14689 2.95107,5.86005 8.03531,18.68379 11.29833,28.49723 3.263,9.81341 7.00949,25.18571 8.32552,34.16067 1.31604,8.97495 2.39279,23.39524 2.39279,32.04507 0,8.64985 -1.07675,23.07012 -2.39279,32.04506 -1.31603,8.97495 -5.06252,24.34726 -8.32552,34.16069 -3.26302,9.81342 -8.34726,22.63716 -11.29833,28.49721 -2.95107,5.86005 -9.71638,17.17616 -15.03403,25.14689 -5.5712,8.35081 -16.19785,21.02167 -25.07618,29.9 -8.87833,8.87833 -21.54921,19.50499 -29.9,25.07619 -7.97074,5.31765 -19.28684,12.08296 -25.14689,15.03403 -5.86005,2.95107 -18.68379,8.03531 -28.49723,11.29833 -9.81342,3.26301 -25.18572,7.0095 -34.16068,8.32552 -8.97494,1.31603 -24.17479,2.32501 -33.77744,2.24216 z"
     id="path6412"
     inkscape:connector-curvature="0" />
</svg>
