<?xml version="1.0" encoding="UTF-8" standalone="no"?>
<!-- Created with Inkscape (http://www.inkscape.org/) -->

<svg
   xmlns:dc="http://purl.org/dc/elements/1.1/"
   xmlns:cc="http://creativecommons.org/ns#"
   xmlns:rdf="http://www.w3.org/1999/02/22-rdf-syntax-ns#"
   xmlns:svg="http://www.w3.org/2000/svg"
   xmlns="http://www.w3.org/2000/svg"
   xmlns:sodipodi="http://sodipodi.sourceforge.net/DTD/sodipodi-0.dtd"
   xmlns:inkscape="http://www.inkscape.org/namespaces/inkscape"
   version="1.1"
   id="svg3841"
   width="868"
   height="870.66669"
   viewBox="0 0 868 870.66669"
   sodipodi:docname="publish.svg"
   inkscape:version="0.92.2 5c3e80d, 2017-08-06">
  <metadata
     id="metadata3847">
    <rdf:RDF>
      <cc:Work
         rdf:about="">
        <dc:format>image/svg+xml</dc:format>
        <dc:type
           rdf:resource="http://purl.org/dc/dcmitype/StillImage" />
        <dc:title></dc:title>
      </cc:Work>
    </rdf:RDF>
  </metadata>
  <defs
     id="defs3845" />
  <sodipodi:namedview
     pagecolor="#ffffff"
     bordercolor="#666666"
     borderopacity="1"
     objecttolerance="10"
     gridtolerance="10"
     guidetolerance="10"
     inkscape:pageopacity="0"
     inkscape:pageshadow="2"
     inkscape:window-width="1920"
     inkscape:window-height="1051"
     id="namedview3843"
     showgrid="false"
     inkscape:pagecheckerboard="true"
     inkscape:zoom="0.766664"
     inkscape:cx="341.88754"
     inkscape:cy="416.65029"
     inkscape:window-x="1920"
     inkscape:window-y="0"
     inkscape:window-maximized="1"
     inkscape:current-layer="svg3841" />
  <path
     style="fill:#ebebeb;fill-opacity:1;stroke:none;stroke-width:1.21785748;stroke-opacity:1"
     d="m 436.32259,710.00763 c -191.81572,-0.0278 -257.03728,-0.39192 -258.85497,-1.44553 -1.33645,-0.77468 -3.64565,-2.53911 -5.13154,-3.921 -1.48589,-1.38187 -4.09167,-4.40011 -5.79061,-6.70716 l -3.08899,-4.19464 0.0302,-257.03578 0.0303,-257.0358 4.09674,-5.58174 c 2.25322,-3.06996 6.21291,-6.63219 8.79928,-7.91607 4.56617,-2.26666 10.31658,-2.34412 198.34186,-2.6715 106.50163,-0.18545 190.70255,-0.70816 192.20966,-0.3425 3.35177,0.41012 6.74429,3.948 6.91004,6.72878 0.22129,3.71271 -0.72638,6.48543 -2.08494,8.22332 l -18.92312,18.27232 c -9.37543,9.05301 -22.2051,20.69128 -23.66816,21.46359 -17.66851,13.25033 1.76407,12.07162 -156.19022,12.72234 l -140.38259,0.59569 -1.33594,204.38453 2.03383,207.46518 204.48672,-0.69791 206.52054,-2.97846 -0.24217,-130.30806 c -0.26001,-139.90076 0.9033,-134.17369 8.49337,-147.25364 1.39255,-2.28422 15.07043,-16.14025 25.24709,-26.41519 18.43926,-18.61768 18.52157,-18.68172 24.01253,-18.68172 3.03041,0 4.90163,3.33825 5.70543,4.14204 1.12396,1.12397 2.72452,41.54136 2.71538,183.95605 l -0.0121,185.17524 -2.97099,6.38142 c -2.21705,4.76196 -4.43798,7.31176 -8.75153,10.04732 l -5.78031,3.6659 z M 294.37266,593.13035 c -2.63519,0 -5.18765,-0.92867 -6.69472,-2.43573 -1.63241,-1.63242 -2.43571,-4.05952 -2.43571,-7.35932 0,-4.15466 0.85493,-5.83757 5.47428,-10.77604 3.01087,-3.21887 7.40232,-10.02543 9.7588,-15.12574 2.35648,-5.10029 8.49791,-23.95361 13.64761,-41.89629 l 9.36311,-32.62299 156.24958,-156.5057 C 621.77687,184.13442 635.98517,169.5502 635.98517,166.02487 c 0,-2.6268 -1.65403,-6.38513 0.17939,-7.6693 1.48868,-1.04272 6.20813,-3.5e-4 7.39875,-3.5e-4 1.66207,0 2.16473,-0.98977 2.16473,-4.26251 0,-2.6387 -0.757,-7.5071 0.75084,-9.01492 1.71402,-1.71403 5.74439,-0.11902 9.60095,-0.11902 5.42961,0 5.48036,-0.0387 5.48036,-4.1755 0,-2.29654 -0.82369,-6.08978 0.2289,-7.14234 1.05257,-1.05258 5.37012,-0.86072 7.53526,-0.86072 2.90014,0 5.02435,-1.12228 8.06798,-4.26251 2.27226,-2.34436 5.00872,-4.2625 6.08103,-4.2625 1.07231,0 4.116,-2.23731 6.76377,-4.97179 2.64778,-2.7345 6.42242,-5.81511 8.3881,-6.84578 2.58414,-1.35496 5.818,-1.7134 11.67649,-1.29423 6.119,0.4378 9.98451,1.58283 15.79028,4.67728 4.22827,2.25364 11.98549,8.14051 17.23825,13.08193 5.25277,4.94142 12.28121,13.0672 15.61879,18.05728 3.33757,4.99008 6.90403,11.88702 7.92546,15.32657 1.02141,3.43952 1.85714,8.10241 1.85714,10.36198 0,2.25954 -1.05202,6.40736 -2.33782,9.21733 -1.28579,2.81 -4.02597,6.71872 -6.08927,8.68605 -2.06332,1.96732 -3.75148,4.19395 -3.75148,4.94805 0,0.75408 -1.6441,2.94623 -3.65358,4.87143 -2.61992,2.51004 -3.65357,4.6418 -3.65357,7.535 0,2.41083 1.1258,7.12104 -0.32962,8.57645 -1.50784,1.50783 -6.16562,0.32962 -8.80431,0.32962 -4.00439,0 -4.2625,0.24169 -4.2625,3.99151 0,2.19535 0.53758,6.75806 -0.47854,8.20878 -1.29963,1.8555 -4.7452,1.16887 -8.37163,1.4316 -4.79635,0.34748 -5.18109,0.64011 -5.5273,4.20398 -0.20467,2.10678 1.64779,6.35198 0.5128,7.37449 -1.13497,1.0225 -6.70024,0.35409 -8.76349,0.57389 -3.14991,0.33562 -28.9723,25.39311 -161.05603,156.28546 l -157.30465,155.88575 -31.36545,9.26016 c -17.251,5.09309 -35.10272,10.70021 -39.67047,12.46025 -4.56773,1.76007 -10.04809,4.40735 -12.17857,5.88288 -2.13047,1.47553 -5.93029,4.49999 -8.44403,6.72101 -3.31765,2.93127 -5.73793,4.03822 -8.82947,4.03822 z"
     id="path4701"
     inkscape:connector-curvature="0"
     sodipodi:nodetypes="sscscccscscscscscccccsccsscccccssssccscsscsscsscscsccscssssccssscssccsccscscccs" />
</svg>
