<?xml version="1.0" encoding="UTF-8" standalone="no"?>
<svg
   xmlns:dc="http://purl.org/dc/elements/1.1/"
   xmlns:cc="http://creativecommons.org/ns#"
   xmlns:rdf="http://www.w3.org/1999/02/22-rdf-syntax-ns#"
   xmlns:svg="http://www.w3.org/2000/svg"
   xmlns="http://www.w3.org/2000/svg"
   xmlns:sodipodi="http://sodipodi.sourceforge.net/DTD/sodipodi-0.dtd"
   xmlns:inkscape="http://www.inkscape.org/namespaces/inkscape"
   viewBox="0 0 1440 1440"
   height="1440"
   width="1440"
   id="svg7030"
   version="1.1"
   sodipodi:docname="search.svg"
   inkscape:version="0.92.2 5c3e80d, 2017-08-06">
  <sodipodi:namedview
     pagecolor="#ffffff"
     bordercolor="#666666"
     borderopacity="1"
     objecttolerance="10"
     gridtolerance="10"
     guidetolerance="10"
     inkscape:pageopacity="0"
     inkscape:pageshadow="2"
     inkscape:window-width="1920"
     inkscape:window-height="1051"
     id="namedview65"
     showgrid="false"
     inkscape:pagecheckerboard="true"
     inkscape:zoom="0.59444444"
     inkscape:cx="427.28972"
     inkscape:cy="720"
     inkscape:window-x="1920"
     inkscape:window-y="0"
     inkscape:window-maximized="1"
     inkscape:current-layer="svg7030" />
  <metadata
     id="metadata7036">
    <rdf:RDF>
      <cc:Work
         rdf:about="">
        <dc:format>image/svg+xml</dc:format>
        <dc:type
           rdf:resource="http://purl.org/dc/dcmitype/StillImage" />
        <dc:title></dc:title>
      </cc:Work>
    </rdf:RDF>
  </metadata>
  <defs
     id="defs7034" />
  <path
     id="path7056"
     style="fill:#ffffff;fill-opacity:1;stroke-width:1.19860315"
     d="m 854.15022,281.91435 c -20.03174,0 -35.18644,0.57689 -41.6117,1.5831 -5.558,0.87038 -16.25765,2.94843 -23.77728,4.61797 -7.51962,1.66953 -21.83834,5.77814 -31.81949,9.13119 -9.98114,3.35305 -26.03062,10.02234 -35.6659,14.82029 -9.63527,4.79797 -22.58046,11.90717 -28.76625,15.79849 -6.18579,3.89133 -16.52975,11.12135 -22.98705,16.06553 -6.45738,4.94416 -18.19031,15.3076 -26.07273,23.03084 -7.88243,7.72326 -18.59251,19.20883 -23.80086,25.52279 -5.20835,6.31395 -13.7441,18.00463 -18.96815,25.98015 -5.22406,7.97552 -13.89509,23.48779 -19.2689,34.47102 -6.10396,12.47531 -12.05259,26.98647 -15.85151,38.66851 -3.3446,10.28481 -7.42574,24.95408 -9.06833,32.59728 -1.64252,7.64321 -3.68599,18.51906 -4.54228,24.16837 -0.98996,6.53086 -1.55684,21.93263 -1.55684,42.29355 0,20.3609 0.56688,35.76415 1.55684,42.29501 0.85629,5.64933 2.89976,16.52517 4.54228,24.16837 1.64259,7.6432 5.69218,22.21657 8.99903,32.3863 3.56878,10.97507 9.7672,26.20174 15.25,37.46165 5.08049,10.43368 11.90532,23.30234 15.16597,28.59749 3.26074,5.29513 5.6935,10.2498 5.40621,11.01084 -0.28737,0.76102 -64.02311,65.32091 -141.63604,143.4655 -77.613,78.1445 -150.20593,151.35931 -161.31626,162.70011 l -20.20065,20.6201 11.62031,11.8164 c 0.10855,-0.8039 1.05486,0.4627 2.01093,2.0449 l 22.01844,22.3876 c 19.60667,19.9373 36.18644,36.2503 36.84534,36.2503 0.65889,0 73.15297,-73.1397 161.09806,-162.532 87.94517,-89.39209 160.27207,-162.53044 160.72655,-162.53044 0.45441,0 6.60791,3.84687 13.674,8.54988 7.06609,4.70303 21.68906,13.03112 32.49471,18.50583 12.3625,6.26351 26.46751,12.24554 38.04393,16.13487 10.11853,3.39955 24.54902,7.54722 32.06864,9.21676 7.51963,1.66955 18.21928,3.74759 23.77728,4.61798 6.42526,1.00619 21.57996,1.58161 41.6117,1.58161 20.03173,10e-6 35.18494,-0.57541 41.61022,-1.58161 5.55796,-0.87041 16.25766,-2.94843 23.77728,-4.61798 7.51962,-1.66954 21.9516,-5.81721 32.07014,-9.21676 11.49313,-3.86136 25.77035,-9.90851 38.04395,-16.11275 10.80569,-5.46216 26.06639,-14.27588 33.91289,-19.5858 7.8466,-5.30992 19.3478,-13.98497 25.5597,-19.27893 6.2118,-5.29399 17.5117,-16.18146 25.11,-24.19345 7.5983,-8.01199 17.7956,-19.93752 22.6598,-26.50097 4.8642,-6.56343 11.9759,-17.07684 15.8044,-23.36428 3.8284,-6.28745 10.8229,-19.44568 15.5433,-29.23928 4.7204,-9.79362 11.282,-26.10664 14.5807,-36.25183 3.2988,-10.14518 7.3417,-24.69884 8.9842,-32.34204 1.6426,-7.6432 3.6875,-18.51904 4.5438,-24.16837 0.9899,-6.53086 1.5569,-21.93411 1.5569,-42.29501 0,-20.36092 -0.567,-35.76269 -1.5569,-42.29355 -0.8563,-5.64931 -2.9012,-16.52516 -4.5438,-24.16837 -1.6425,-7.6432 -5.6854,-22.19834 -8.9842,-32.34351 -3.2987,-10.14518 -9.8603,-26.4582 -14.5807,-36.25182 -4.7204,-9.79361 -11.7149,-22.95037 -15.5433,-29.23782 -3.8285,-6.28744 -10.9402,-16.80232 -15.8044,-23.36576 -4.8642,-6.56343 -15.0615,-18.48898 -22.6598,-26.50096 -7.5983,-8.01199 -18.8982,-18.898 -25.11,-24.19197 -6.2119,-5.29397 -17.7131,-13.9705 -25.5597,-19.28042 -7.8465,-5.30991 -23.1072,-14.12365 -33.91289,-19.58581 -12.2736,-6.20422 -26.55082,-12.24989 -38.04395,-16.11126 -10.11854,-3.39954 -24.55052,-7.54723 -32.07014,-9.21676 -7.51962,-1.66954 -18.21932,-3.74759 -23.77728,-4.61797 -6.42528,-1.00621 -21.57849,-1.5831 -41.61022,-1.5831 z m 0,85.48265 c 4.52065,0 9.04056,0.26541 14.56294,0.79672 8.01004,0.77063 21.01572,2.72617 28.90046,4.3465 7.88474,1.62031 19.92176,4.89695 26.74941,7.28105 6.82755,2.3841 18.29911,7.2532 25.49188,10.81904 7.1926,3.56584 17.8923,9.73581 23.7773,13.71228 5.8849,3.97646 15.8509,11.61584 22.1481,16.97584 6.29729,5.35998 14.91529,13.70515 19.14959,18.54566 4.2344,4.84049 10.7054,12.78435 14.3816,17.65305 3.6764,4.8687 9.4023,13.42525 12.7231,19.01335 3.3208,5.58811 8.1002,14.65518 10.6222,20.14941 2.5219,5.49423 6.5221,15.66762 8.8884,22.60741 2.3664,6.93977 5.6064,19.17417 7.2005,27.1885 1.5941,8.01431 3.5187,21.23336 4.2769,29.37502 1.0453,11.2263 1.0453,18.38036 0,29.60666 -0.7582,8.14168 -2.6828,21.35925 -4.2769,29.37355 -1.5941,8.01432 -4.8341,20.2502 -7.2005,27.18998 -2.3663,6.93978 -6.3665,17.11319 -8.8884,22.6074 -2.522,5.49423 -7.3014,14.5613 -10.6222,20.14941 -3.3208,5.58808 -9.0467,14.14319 -12.7231,19.01188 -3.6762,4.86871 -10.1472,12.81255 -14.3816,17.65305 -4.2343,4.8405 -12.8523,13.18713 -19.14959,18.54713 -6.2972,5.35999 -16.2632,12.99791 -22.1481,16.97437 -5.885,3.97648 -16.5847,10.14792 -23.7773,13.71376 -7.19277,3.56584 -18.66433,8.43346 -25.49188,10.81756 -6.82765,2.38409 -18.86467,5.65321 -26.74941,7.26335 -7.88474,1.61013 -19.87615,3.49454 -26.6477,4.18863 -6.77155,0.69412 -15.33219,1.19048 -19.02276,1.10212 -3.69047,-0.0883 -11.23035,-0.64113 -16.75521,-1.22753 -5.52487,-0.58641 -16.52285,-2.39829 -24.4407,-4.02781 -7.91785,-1.62954 -19.98229,-4.91467 -26.80986,-7.29876 -6.8276,-2.3841 -18.29919,-7.25172 -25.49187,-10.81756 -7.19269,-3.56584 -17.89234,-9.73728 -23.77726,-13.71376 -5.88493,-3.97646 -15.85245,-11.61438 -22.14966,-16.97437 -6.29722,-5.36 -14.91365,-13.70663 -19.14802,-18.54713 -4.23434,-4.8405 -10.70685,-12.78434 -14.38312,-17.65305 -3.67627,-4.86869 -9.40079,-13.4238 -12.72161,-19.01188 -3.32081,-5.58811 -8.10172,-14.65518 -10.62369,-20.14941 -2.52198,-5.49421 -6.52214,-15.66762 -8.88847,-22.6074 -2.3664,-6.93978 -5.60635,-19.17566 -7.2004,-27.18998 -1.59414,-8.0143 -3.51868,-21.23187 -4.27691,-29.37355 -1.04537,-11.2263 -1.04537,-18.38036 0,-29.60666 0.75823,-8.14166 2.68277,-21.36071 4.27691,-29.37502 1.59405,-8.01433 4.834,-20.24873 7.2004,-27.1885 2.36633,-6.93979 6.36649,-17.1132 8.88847,-22.60741 2.52197,-5.49421 7.30288,-14.5613 10.62369,-20.14941 3.32082,-5.5881 9.04534,-14.14467 12.72161,-19.01335 3.67627,-4.86871 10.14878,-12.81256 14.38312,-17.65305 4.23437,-4.84051 12.8508,-13.18568 19.14802,-18.54566 6.29721,-5.36 16.26473,-12.99938 22.14966,-16.97584 5.88492,-3.97647 16.58457,-10.14644 23.77726,-13.71228 7.19268,-3.56584 18.66428,-8.43494 25.49187,-10.81904 6.82756,-2.3841 18.86468,-5.66074 26.74942,-7.28105 7.88473,-1.62033 20.88888,-3.57587 28.89894,-4.3465 5.52238,-0.53131 10.04382,-0.79672 14.56447,-0.79672 z m -616.78188,766.2721 c -0.45977,0.4768 -0.95099,0.9791 -1.39468,1.4415 0.4996,-0.1545 0.99791,-0.313 1.49788,-0.4663 -0.0401,-0.4048 -0.0661,-0.6132 -0.1032,-0.9752 z m 59.18222,2.8564 c -0.006,0.2071 -0.0151,0.414 -0.0221,0.6211 0.9614,0.608 1.73562,1.103 2.32199,1.4518 -0.63919,-0.6467 -1.28293,-1.3008 -1.91362,-1.9372 -0.1303,-0.044 -0.25457,-0.093 -0.38626,-0.1357 z m -52.84427,32.1709 c -0.0582,0.1786 -0.10937,0.3569 -0.16071,0.5355 0.0187,0.02 0.0373,0.037 0.056,0.056 0.0367,-0.2107 0.0669,-0.373 0.10467,-0.5916 z"
     inkscape:connector-curvature="0" />
  <path
     id="path7048"
     d=""
     style="fill:#000000;stroke-width:1.33333337" />
</svg>
