<?xml version="1.0" encoding="UTF-8" standalone="no"?>
<svg
   xmlns:dc="http://purl.org/dc/elements/1.1/"
   xmlns:cc="http://creativecommons.org/ns#"
   xmlns:rdf="http://www.w3.org/1999/02/22-rdf-syntax-ns#"
   xmlns:svg="http://www.w3.org/2000/svg"
   xmlns="http://www.w3.org/2000/svg"
   viewBox="0 0 1440 1440"
   height="1440"
   width="1440"
   id="svg7030"
   version="1.1">
  <metadata
     id="metadata7036">
    <rdf:RDF>
      <cc:Work
         rdf:about="">
        <dc:format>image/svg+xml</dc:format>
        <dc:type
           rdf:resource="http://purl.org/dc/dcmitype/StillImage" />
        <dc:title></dc:title>
      </cc:Work>
    </rdf:RDF>
  </metadata>
  <defs
     id="defs7034" />
  <path
     id="path7056"
     d="m 190.94829,1355.7733 c -0.8623,0 -22.649,-21.4204 -48.4148,-47.6009 -25.7657,-26.1805 -46.846798,-48.3242 -46.846798,-49.2083 0,-0.8841 11.879298,-13.6573 26.398398,-28.3849 14.5191,-14.7274 27.4584,-26.7772 28.754,-26.7772 1.2956,0 23.0823,21.0605 48.4148,46.8012 25.3325,25.7405 46.0592,47.8844 46.0592,49.2083 0,1.324 -11.8793,14.457 -26.3984,29.1845 -14.5191,14.7275 -27.104,26.7773 -27.9664,26.7773 z m 72.4698,-73.5861 c -0.8729,0 -22.8392,-21.5942 -48.814,-47.9872 l -47.227,-47.9871 26.7616,-27.2965 c 14.7189,-15.013 110.8881,-111.9357 213.7094,-215.38361 102.8212,-103.44796 187.2591,-188.91149 187.6398,-189.91894 0.3806,-1.00746 -2.8423,-7.56696 -7.1621,-14.57667 -4.3197,-7.00973 -13.3609,-24.04576 -20.0915,-37.85789 -7.2636,-14.90589 -15.4749,-35.06182 -20.2028,-49.59064 -4.3809,-13.46272 -9.7457,-32.75612 -11.9218,-42.8742 -2.176,-10.11809 -4.8846,-24.51537 -6.019,-31.99396 -1.3115,-8.64557 -2.0626,-29.0356 -2.0626,-55.98942 0,-26.95382 0.7511,-47.34386 2.0626,-55.98943 1.1344,-7.47858 3.843,-21.87586 6.019,-31.99396 2.1761,-10.11808 7.5817,-29.53613 12.0126,-43.15119 5.0328,-15.46471 12.9138,-34.67548 21.0003,-51.19032 7.1192,-14.53962 18.6066,-35.07403 25.5274,-45.63204 6.9208,-10.558 18.2288,-26.03508 25.1288,-34.39351 6.9,-8.35842 21.0895,-23.56226 31.5321,-33.78632 10.4426,-10.22405 25.9858,-23.94426 34.5405,-30.48936 8.5546,-6.54511 22.25875,-16.11494 30.45366,-21.26629 8.1949,-5.15134 25.34373,-14.56281 38.10848,-20.91436 12.76477,-6.35155 34.02746,-15.18 47.25042,-19.61877 13.22298,-4.43877 32.19247,-9.87879 42.15444,-12.08892 9.96196,-2.21014 24.13708,-4.96116 31.50027,-6.11338 8.51216,-1.33202 28.58758,-2.09495 55.1255,-2.09495 26.53791,0 46.61333,0.76293 55.12549,2.09495 7.36319,1.15222 21.53835,3.90324 31.50035,6.11338 9.9619,2.21013 29.0804,7.70051 42.4854,12.20083 15.226,5.11169 34.1404,13.1162 50.4003,21.32936 14.3154,7.23082 34.5329,18.89821 44.928,25.92749 10.3951,7.02928 25.6333,18.51447 33.8628,25.52263 8.2295,7.00818 23.1987,21.42 33.265,32.02629 10.0662,10.60628 23.5748,26.39308 30.0189,35.08177 6.4441,8.68869 15.8662,22.60764 20.9381,30.93097 5.0719,8.32334 14.3381,25.74093 20.5917,38.70573 6.2535,12.96481 14.9458,34.56073 19.316,47.99094 4.3703,13.43021 9.7264,32.69699 11.9024,42.81507 2.1761,10.1181 4.8846,24.51538 6.0191,31.99396 1.3114,8.64557 2.0626,29.03561 2.0626,55.98943 0,26.95382 -0.7512,47.34385 -2.0626,55.98942 -1.1345,7.47859 -3.843,21.87587 -6.0191,31.99396 -2.176,10.11808 -7.5321,29.38486 -11.9024,42.81507 -4.3702,13.43021 -13.0625,35.02613 -19.316,47.99094 -6.2536,12.9648 -15.5198,30.38239 -20.5917,38.70573 -5.0719,8.32334 -14.494,22.24228 -20.9381,30.93097 -6.4441,8.6887 -19.9527,24.47549 -30.0189,35.08177 -10.0663,10.60629 -25.0355,25.01811 -33.265,32.0263 -8.2295,7.00816 -23.4677,18.49335 -33.8628,25.52263 -10.3951,7.02928 -30.6126,18.69666 -44.928,25.92749 -16.2599,8.21317 -35.1743,16.21767 -50.4003,21.32935 -13.405,4.50033 -32.5235,9.9907 -42.4854,12.20084 -9.962,2.21015 -24.13716,4.96115 -31.50035,6.11337 -8.51216,1.33202 -28.58758,2.09495 -55.12549,2.09495 -26.53792,0 -46.61334,-0.76293 -55.1255,-2.09495 -7.36319,-1.15222 -21.53831,-3.90322 -31.50027,-6.11337 -9.96197,-2.21014 -29.08039,-7.70051 -42.48536,-12.20084 -15.33638,-5.1487 -34.02267,-13.06789 -50.40045,-21.35953 -14.31527,-7.24744 -33.68685,-18.27104 -43.04797,-24.49691 -9.36112,-6.22586 -17.51282,-11.31974 -18.11482,-11.31974 -0.6021,0 -96.4204,96.82171 -212.9297,215.15928 -116.5092,118.3377 -212.5491,215.1594 -213.422,215.1594 z M 927.52101,816.4626 c 4.88919,0.11697 16.22929,-0.53923 25.20022,-1.4581 8.97092,-0.91885 24.85721,-3.41462 35.30286,-5.54612 10.44566,-2.13149 26.39271,-6.45771 35.43791,-9.61378 9.0451,-3.15608 24.242,-9.60052 33.7709,-14.32098 9.5287,-4.72046 23.7039,-12.88961 31.5002,-18.15367 7.7963,-5.26405 21.0008,-15.37646 29.3433,-22.47202 8.3426,-7.09558 19.758,-18.14384 25.3676,-24.55171 5.6097,-6.40786 14.1842,-16.924 19.0544,-23.3692 4.8704,-6.44519 12.4547,-17.77109 16.854,-25.16861 4.3994,-7.39756 10.7325,-19.40095 14.0737,-26.67422 3.3411,-7.27326 8.6397,-20.74068 11.7747,-29.92759 3.1349,-9.18689 7.4278,-25.38383 9.5397,-35.9932 2.1119,-10.60936 4.6616,-28.10807 5.666,-38.88603 1.3849,-14.86139 1.3849,-24.33122 0,-39.19261 -1.0044,-10.77796 -3.5541,-28.27666 -5.666,-38.88602 -2.1119,-10.60938 -6.4048,-26.80632 -9.5397,-35.9932 -3.135,-9.1869 -8.4336,-22.65434 -11.7747,-29.9276 -3.3412,-7.27327 -9.6743,-19.27666 -14.0737,-26.6742 -4.3993,-7.39754 -11.9836,-18.72343 -16.854,-25.16863 -4.8702,-6.4452 -13.4447,-16.96134 -19.0544,-23.3692 -5.6096,-6.40786 -17.025,-17.45613 -25.3676,-24.55169 -8.3425,-7.09558 -21.547,-17.20799 -29.3433,-22.47204 -7.7963,-5.26406 -21.9715,-13.4332 -31.5002,-18.15367 -9.5289,-4.72045 -24.7258,-11.1649 -33.7709,-14.32098 -9.0452,-3.15607 -24.99225,-7.4933 -35.43791,-9.63827 -10.44565,-2.14499 -27.67435,-4.73466 -38.28602,-5.75483 -14.63206,-1.40669 -23.95577,-1.40669 -38.58783,0 -10.61167,1.02017 -27.84036,3.60984 -38.28601,5.75483 -10.44567,2.14497 -26.39268,6.4822 -35.43782,9.63827 -9.04515,3.15608 -24.24205,9.60053 -33.77088,14.32098 -9.52884,4.72047 -23.70396,12.88961 -31.50028,18.15367 -7.79632,5.26405 -21.00083,15.37646 -29.34335,22.47204 -8.34252,7.09556 -19.75793,18.14383 -25.36759,24.55169 -5.60963,6.40786 -14.18412,16.924 -19.05442,23.3692 -4.8703,6.4452 -12.4545,17.77109 -16.8539,25.16863 -4.3994,7.39754 -10.7326,19.40093 -14.0737,26.6742 -3.3411,7.27326 -8.6398,20.7407 -11.7747,29.9276 -3.135,9.18688 -7.4279,25.38382 -9.5397,35.9932 -2.1119,10.60936 -4.6616,28.10806 -5.6661,38.88602 -1.3849,14.86139 -1.3849,24.33122 0,39.19261 1.0045,10.77796 3.5542,28.27667 5.6661,38.88603 2.1118,10.60937 6.4047,26.80631 9.5397,35.9932 3.1349,9.18691 8.4336,22.65433 11.7747,29.92759 3.3411,7.27327 9.6743,19.27666 14.0737,26.67422 4.3994,7.39752 11.9836,18.72342 16.8539,25.16861 4.8703,6.4452 13.44479,16.96134 19.05442,23.3692 5.60966,6.40787 17.02507,17.45613 25.36759,24.55171 8.34252,7.09556 21.54703,17.20797 29.34335,22.47202 7.79632,5.26406 21.97144,13.43321 31.50028,18.15367 9.52883,4.72046 24.72573,11.1649 33.77088,14.32098 9.04514,3.15607 25.02806,7.50327 35.51759,9.66045 10.48952,2.15717 25.06039,4.55728 32.37971,5.33357 7.31931,0.77628 17.3081,1.50707 22.1973,1.62398 z"
     style="fill:#1d7b33;fill-opacity:1;stroke-width:1.58730805" />
  <path
     id="path7048"
     d=""
     style="fill:#000000;stroke-width:1.33333337" />
</svg>
